# xmcd
#
# Track frame offsets: 
#        150
#        16927
#        34825
#        50550
#        68085
#        79135
#        96055
#        116397
#        124487
#        139322
#        155315
#        177008
#        194726
#        209011
#        239928
#        266061
#        303257
#        308568
#        338428
#
# Disc length: 4646 seconds
#
# Revision: 0
# Processed by: cddbd v1.5.2PL0 Copyright (c) Steve Scherf et al.
# Submitted via: ExactAudioCopy v0.95b4
#
DISCID=12122413
DTITLE=Janis Joplin and Full tilt boogie - Pearl
DYEAR=1970
DGENRE=
TTITLE0=More Over
TTITLE1=Cry Baby
TTITLE2=A Woman Left lonely
TTITLE3=Half Moon
TTITLE4=Buried Alive In The Blues
TTITLE5=My Baby
TTITLE6=Me And Bobby McGee
TTITLE7=Mercedes Benz
TTITLE8=Trust Me
TTITLE9=Get It While You Can
TTITLE10=Me And Bobby McGee
TTITLE11=Little Girl Blue (Live)
TTITLE12=One Night Stand
TTITLE13=Try (Just a Little Bit Harder)
TTITLE14=Tell Mama
TTITLE15=Try (Just a Little Bit Harder)
TTITLE16=Happy Birthday, John (Happy Trails)
TTITLE17=Work Me, Lord
TTITLE18=Mercedes Benz
EXTD=
EXTT0=
EXTT1=
EXTT2=
EXTT3=
EXTT4=
EXTT5=
EXTT6=
EXTT7=
EXTT8=
EXTT9=
EXTT10=
EXTT11=
EXTT12=
EXTT13=
EXTT14=
EXTT15=
EXTT16=
EXTT17=
EXTT18=
PLAYORDER=
